# xmcd
#
# Track frame offsets:
#	150
#	12791
#	28286
#	41156
#	58475
#	73851
#	86018
#	99634
#	117126
#	136528
#	150762
#	168183
#	181188
#	197259
#	215795
#	229144
#	247268
#	265367
#	281957
#	299131
#	313468
#	328258
#	341222
#
# Disc length: 4708 seconds
#
# Revision: 0
# Processed by: cddbd v1.5.2PL0 Copyright (c) Steve Scherf et al.
# Submitted via: EasyCDDAExtractor 12.0.0.1
#
DISCID=6e126217
DTITLE=Michel delpech - Master série
DYEAR=1998
DGENRE=Chanson
TTITLE0=Le loi et Cher
TTITLE1=Chez Laurette
TTITLE2=62, nos quinze ans
TTITLE3=Quand j'étais chanteur
TTITLE4=Trente manière de quitter une fille
TTITLE5=Vue d'avion un soir
TTITLE6=Inventaire 66
TTITLE7=Il faut regarder les étoiles
TTITLE8=Les divorcés
TTITLE9=Le chasseur
TTITLE10=Pour un flirt
TTITLE11=Fan de toi
TTITLE12=Que Marianne étais jolie
TTITLE13=Tu me fais planer
TTITLE14=Rimbaud chanterait
TTITLE15=Wight is Wight
TTITLE16=Pleurer le chanteur
TTITLE17=J'étais un ange
TTITLE18=Un jour tu verras
TTITLE19=La fille avec des baskets
TTITLE20=Ce lundi là
TTITLE21=Inventaire 71
TTITLE22=Je l'attendais
EXTD=
EXTT0=
EXTT1=
EXTT2=
EXTT3=
EXTT4=
EXTT5=
EXTT6=
EXTT7=
EXTT8=
EXTT9=
EXTT10=
EXTT11=
EXTT12=
EXTT13=
EXTT14=
EXTT15=
EXTT16=
EXTT17=
EXTT18=
EXTT19=
EXTT20=
EXTT21=
EXTT22=
PLAYORDER=
